<?xml version="1.0" encoding="utf-8" ?>
<svg baseProfile="full" height="200mm" version="1.1" viewBox="0,0,200,200" width="200mm" xmlns="http://www.w3.org/2000/svg" xmlns:ev="http://www.w3.org/2001/xml-events" xmlns:xlink="http://www.w3.org/1999/xlink"><defs /><rect fill="#1a1a1a" height="200" width="200" x="0" y="0" /><rect fill="#1a1a1a" height="200" width="180" x="10" y="0" /><text alignment-baseline="middle" fill="#e1ed5e" style="dominant-baseline: central; font-size:9.0px; font-family:Arial;" text-anchor="middle" x="100.0" y="100.0">2024</text><line stroke="#e1ed5e" stroke-width="0.3" x1="100.0" x2="100.0" y1="15.0" y2="10.0" /><path d="M 100.0 14.0 a86.0,86.0 0 0,1 42.35913384403234,11.155469271406648" fill="none" id="id49" stroke="none" /><text fill="#e1ed5e" style="font-size:6.75px; font-family:Arial;" text-anchor="middle"><textPath startOffset="22.145653131862478" xlink:href="#id49">January</textPath></text><path d="M 100.0 79.0 l 0.0 -13.48081841432225 a34.48081841432225,34.48081841432225 0 0,0 0.5919090991124418,0.0050808277259008 l -0.23141617426358707 13.478831984790785" fill="#ff970d" stroke="none" /><path d="M 100.36049292484886 79.00309439819443 l 0.230724691671166 -13.438556590413919 a34.440537084398976,34.440537084398976 0 0,0 0.5910433819747751,0.01522318094445928 l -0.4613813877166825 13.432615692119414" fill="#ff970d" stroke="none" /><path d="M 101.08105385017728 79.02784411241856 l 0.6939757452544669 -13.462944060825938 a34.48081841432225,34.48081841432225 0 0,0 0.590862726166136,0.03554483436457263 l -0.9249828235530653 13.449047248636674" fill="#ff970d" stroke="none" /><path d="M 101.80034050326958 79.07731436759882 l 1.8440827917121927 -21.43103732935211 a42.510230179028135,42.510230179028135 0 0,0 0.7265209605646094,0.06880229032646318 l -2.211703315661815 21.396223283520467" fill="#feff18" stroke="none" /><path d="M 102.51750503828377 79.15144685158666 l 1.612877268772595 -13.356937503011613 a34.4539641943734,34.4539641943734 0 0,0 0.5865741106318596,0.07594376224410564 l -1.8419292012952464 13.32728214456711" fill="#ff970d" stroke="none" /><path d="M 102.87502721639298 79.19773525538626 l 1.8474439593829568 -13.367184186916115 a34.49424552429667,34.49424552429667 0 0,0 0.5858681609295812,0.08610244417849812 l -2.07663722592022 13.333500669438735" fill="#ff970e" stroke="none" /><path d="M 103.58742460773223 79.30868818359171 l 2.300630998436972 -13.269428230087927 a34.46739130434783,34.46739130434783 0 0,0 0.5821136438455532,0.1060804971343885 l -2.5280793758335793 13.227979559022172" fill="#ff970d" stroke="none" /><path d="M 104.29559338865022 79.4440306129975 l 4.3972154828829915 -21.042267895518563 a42.49680306905371,42.49680306905371 0 0,0 0.7128081530693354,0.15535321931379803 l -4.757786052571461 20.963683218071044" fill="#feff18" stroke="none" /><path d="M 104.9986988182912 79.60360301121754 l 4.161320883257763 -16.97960925792504 a38.48209718670077,38.48209718670077 0 0,0 0.6402590982199614,0.162751359053787 l -4.452185274703118 16.90567266703599" fill="#ffcd13" stroke="none" /><path d="M 105.3480935250658 79.69241777938227 l 3.4229166359276655 -12.997371996699709 a34.440537084398976,34.440537084398976 0 0,0 0.5704313980834482,0.15547361414339875 l -3.6455294349458063 12.936697888412168" fill="#ff970d" stroke="none" /><path d="M 106.04205211174951 79.88797359093562 l 3.867067879706685 -12.872211275878165 a34.440537084398976,34.440537084398976 0 0,0 0.5647581692354658,0.1749635244731146 l -4.087466681813781 12.803931163598403" fill="#ff970d" stroke="none" /><path d="M 106.72888874123014 80.10723608172694 l 6.892378365377669 -20.37609194186281 a42.510230179028135,42.510230179028135 0 0,0 0.6892613335712737,0.2397608711559096 l -7.2411454709939616 20.25477263813831" fill="#feff18" stroke="none" /><path d="M 107.40779381753099 80.34994680014964 l 4.745913941922027 -12.589100579443773 a34.4539641943734,34.4539641943734 0 0,0 0.551637068057297,0.21338506843848712 l -4.961323272472851 12.50577562286725" fill="#ff970d" stroke="none" /><path d="M 107.74402155503746 80.48000691201159 l 4.951420431609632 -12.480813994877497 a34.42710997442455,34.42710997442455 0 0,0 0.5474657042888188,0.2226495358891887 l -5.164940597088891 12.393977202409015" fill="#ff960d" stroke="none" /><path d="M 108.4095320186766 80.7573450057729 l 5.382315569498255 -12.315791335819261 a34.440537084398976,34.440537084398976 0 0,0 0.5397104358537755,0.24140561311779288 l -5.592939408207662 12.221581971791617" fill="#ff970d" stroke="none" /><path d="M 109.06512990194946 81.05736502329252 l 9.285382418748743 -19.40287802601368 a42.510230179028135,42.510230179028135 0 0,0 0.6555477307137441,0.32066124500779913 l -9.617090398724553 19.240623030908658" fill="#feff18" stroke="none" /><path d="M 109.71004243097381 81.37971332152246 l 6.2146754945043385 -11.917459696391315 a34.440537084398976,34.440537084398976 0 0,0 0.5218744805035005,0.2778687661710997 l -6.418338790794398 11.809020462497642" fill="#ff970d" stroke="none" /><path d="M 110.02825361518725 81.54914285379988 l 6.424750717658328 -11.820817685736898 a34.4539641943734,34.4539641943734 0 0,0 0.5172291644446589,0.2868982985924215 l -6.626724070259087 11.708786471711331" fill="#ff970d" stroke="none" /><line stroke="#e1ed5e" stroke-width="0.3" x1="143.13028292997686" x2="145.6673583964461" y1="26.7553504044142" y2="22.446841604673864" /><path d="M 143.63769802327073 25.89364864446614 a86.0,86.0 0 0,1 29.32050498858742,28.57503671076993" fill="none" id="id50" stroke="none" /><text fill="#e1ed5e" style="font-size:6.75px; font-family:Arial;" text-anchor="middle"><textPath startOffset="20.669276256404974" xlink:href="#id50">February</textPath></text><path d="M 110.65571695917076 81.90426304109057 l 10.92142857132399 -18.54697336645257 a42.52365728900256,42.52365728900256 0 0,0 0.6258414066384947,0.37579978280226217 l -11.238202734519918 18.356759583114385" fill="#feff18" stroke="none" /><path d="M 111.8722381534696 82.67804972795209 l 16.070030799805078 -23.446655195604496 a49.42519181585678,49.42519181585678 0 0,0 0.6957299676402728,0.4856735505251462 l -16.470155858619112 23.167336829274223" fill="#abff21" stroke="none" /><path d="M 113.31354834802062 83.75963576809568 l 13.628510808939268 -16.62456722204529 a42.49680306905371,42.49680306905371 0 0,0 0.5602002764562721,0.467338994833076 l -13.911885419557434 16.388166043300345" fill="#feff18" stroke="none" /><path d="M 113.59037401385872 83.9905735841838 l 8.90673488759923 -10.492111301925577 a34.762787723785166,34.762787723785166 0 0,0 0.4516191348426821,0.39009785233301786 l -9.085533502204772 10.337669317127839" fill="#ff9b0e" stroke="none" /><path d="M 114.39649973595853 84.71141617570332 l 19.440797597406913 -20.645453348410864 a49.35805626598466,49.35805626598466 0 0,0 0.6118695281068496,0.5861571668776774 l -19.792339611379074 20.308684051227605" fill="#abff21" stroke="none" /><path d="M 115.41159269507618 85.73525988315684 l 15.795897116500713 -14.620446551981827 a42.52365728900256,42.52365728900256 0 0,0 0.4912541441392416,0.5399743594685764 l -16.044548961481834 14.347134616955579" fill="#feff18" stroke="none" /><path d="M 115.6541949942343 86.00192230759917 l 10.029094235436553 -8.96807790779132 a34.4539641943734,34.4539641943734 0 0,0 0.39046010862036923,0.4442719278364512 l -10.181565408015512 8.794593702143573" fill="#ff970d" stroke="none" /><path d="M 116.35404254752997 86.82634096563983 l 13.624883273293833 -10.975241510083954 a38.49552429667519,38.49552429667519 0 0,0 0.4101305264390342,0.5181865222484767 l -13.811280230374427 10.7397350439208" fill="#ffcd13" stroke="none" /><path d="M 116.57777611688842 87.10902102172516 l 10.620800299950247 -8.25879855257762 a34.4539641943734,34.4539641943734 0 0,0 0.3590562826782921,0.47001619988740206 l -10.761008559982846 8.075261439449335" fill="#ff970d" stroke="none" /><path d="M 117.01052211995028 87.68569379921539 l 17.565213058644314 -12.715859663853673 a42.684782608695656,42.684782608695656 0 0,0 0.42458126711844957,0.5972267239708995 l -17.780909424292723 12.41245571317327" fill="#fcff18" stroke="none" /><path d="M 117.21940702142032 87.97951657250589 l 11.031870738787184 -7.701102553931648 a34.4539641943734,34.4539641943734 0 0,0 0.3343843576290767,0.4878767709784239 l -11.162444833231586 7.510591047883175" fill="#ff970d" stroke="none" /><path d="M 117.42321728460499 88.27688183743584 l 11.162444833231586 -7.510591047883175 a34.4539641943734,34.4539641943734 0 0,0 0.32596003179630517,0.49354503336443434 l -11.289729303948615 7.317866136179682" fill="#ff970d" stroke="none" /><path d="M 117.81537515405839 88.88188828441811 l 11.90349554730883 -7.428661600244935 a35.03132992327366,35.03132992327366 0 0,0 0.3140008828234369,0.5128968440096143 l -12.02926439458767 7.223227640110766" fill="#ff9f0e" stroke="none" /><line stroke="#e1ed5e" stroke-width="0.3" x1="172.87174338648825" x2="177.1583165268699" y1="56.24261187166439" y2="53.66864786411523" /><path d="M 173.72905801456457 55.72781907015455 a86.0,86.0 0 0,1 12.242430191666344,42.057860355516425" fill="none" id="id51" stroke="none" /><text fill="#e1ed5e" style="font-size:6.75px; font-family:Arial;" text-anchor="middle"><textPath startOffset="22.145653131862474" xlink:href="#id51">March</textPath></text><path d="M 118.18653347947321 89.5 l 18.849341924696976 -10.8826726342711 a42.7653452685422,42.7653452685422 0 0,0 0.36160468823971703,0.6389208358275632 l -19.03337997795807 10.55749502834442" fill="#fbff18" stroke="none" /><path d="M 118.53625476483649 90.13048839642627 l 11.863677122507243 -6.316739843463744 a34.440537084398976,34.440537084398976 0 0,0 0.27337903010183323,0.524240336596523 l -11.97036422158402 6.112153263762723" fill="#ff970d" stroke="none" /><path d="M 118.70294669586156 90.45014215332178 l 12.006239439031326 -6.130471405412362 a34.48081841432225,34.48081841432225 0 0,0 0.264648633550038,0.529474548191489 l -12.1097079857931 5.923465001057123" fill="#ff970d" stroke="none" /><path d="M 119.0197475246899 91.09779779509293 l 12.209607746028555 -5.714712924377688 a34.48081841432225,34.48081841432225 0 0,0 0.24631706793620714,0.5382472465937922 l -12.305909278819813 5.504276695569212" fill="#ff970d" stroke="none" /><path d="M 119.31412917781788 91.75594674310238 l 19.86984261324103 -8.481254277716275 a42.60421994884911,42.60421994884911 0 0,0 0.2813382962185031,0.6751094933138271 l -20.012506753996014 8.13891227496117" fill="#fdff18" stroke="none" /><path d="M 119.58574465831526 92.42381321644754 l 12.547900350148272 -4.853797415038079 a34.4539641943734,34.4539641943734 0 0,0 0.20864224126096248,0.5534483331341375 l -12.629373275223674 4.6376808017097835" fill="#ff970d" stroke="none" /><path d="M 119.71291397450082 92.76114493625339 l 12.629373275223674 -4.6376808017097835 a34.4539641943734,34.4539641943734 0 0,0 0.1991108207591059,0.5569484027663475 l -12.707124266026723 4.42019744256252" fill="#ff970d" stroke="none" /><path d="M 119.94978838288452 93.4421083053983 l 12.755619170642278 -4.193025380180108 a34.42710997442455,34.42710997442455 0 0,0 0.1797345708101743,0.5630159831299768 l -12.82571845722971 3.9734403633587445" fill="#ff960d" stroke="none" /><path d="M 120.16314734710363 94.1308016681162 l 20.640152751095222 -6.008047653034504 a42.49680306905371,42.49680306905371 0 0,0 0.19787626124293342,0.7021930440197977 l -20.74024750441274 5.652846685111693" fill="#feff18" stroke="none" /><path d="M 120.35273937422433 94.82641323984039 l 15.641939084282376 -3.9761197478976036 a37.13938618925831,37.13938618925831 0 0,0 0.15176298059842616,0.6192447500856837 l -15.707889591397093 3.707019173203825" fill="#ffbb11" stroke="none" /><path d="M 120.43855184770803 95.1765574152323 l 15.694821463617231 -3.703935130630444 a37.12595907928389,37.12595907928389 0 0,0 0.14105944232292353,0.621533930088614 l -15.756091767497821 3.433966866602804" fill="#ffbb11" stroke="none" /><path d="M 120.592083275326 95.88100663000786 l 13.19262624160911 -2.638894729368363 a34.4539641943734,34.4539641943734 0 0,0 0.11102988107671698,0.5809552545553164 l -13.235982414967983 2.412036909779732" fill="#ff970d" stroke="none" /><path d="M 120.7213421655516 96.59031103205396 l 23.86134094639287 -3.926374572423801 a45.18222506393862,45.18222506393862 0 0,0 0.11936392516287571,0.766402025448018 l -23.92522636369401 3.5161843650443414" fill="#ddff1b" stroke="none" /><path d="M 120.82617615685814 97.30363454192243 l 13.329285379165594 -1.7257428539230486 a34.440537084398976,34.440537084398976 0 0,0 0.07087848385163857,0.5869755234600037 l -13.356945949276895 1.4966736535396319" fill="#ff970d" stroke="none" /><path d="M 120.86939407059847 97.66154086499901 l 13.370289551623824 -1.4981688320146964 a34.4539641943734,34.4539641943734 0 0,0 0.06081552486703636,0.5883350356918146 l -13.394037468972526 1.2684292740399503" fill="#ff970d" stroke="none" /><path d="M 120.9064616781168 98.02013634271609 l 2.9408066299141282 -0.2784974453979932 a23.953964194373402,23.953964194373402 0 0,0 0.03525382167981485,0.4097028462159968 l -2.945154074291684 0.22797355180633438" fill="#ff0000" stroke="none" /><path d="M 120.99303781780057 99.45929381324524 l 28.469458575163053 -0.7332722647742006 a49.478900255754475,49.478900255754475 0 0,0 0.014581121840738929,0.8492772472212214 l -28.47785112860246 0.24444810158391272" fill="#aaff21" stroke="none" /><line stroke="#e1ed5e" stroke-width="0.3" x1="184.99686870605535" x2="189.99668451229388" y1="99.2704041080226" y2="99.22748670261217" /><path d="M 185.99683186730306 99.26182062694052 a86.0,86.0 0 0,1 -10.086455211305974,41.156179273409016" fill="none" id="id52" stroke="none" /><text fill="#e1ed5e" style="font-size:6.75px; font-family:Arial;" text-anchor="middle"><textPath startOffset="21.40746469413373" xlink:href="#id52">April</textPath></text><path d="M 120.99922638620191 99.81974689727618 l 13.587734720483585 -0.11663436058600643 a34.588235294117645,34.588235294117645 0 0,0 0.0,0.5937749266196649 l -13.587734720483585 -0.11663436058600478" fill="#ff990e" stroke="none" /><path d="M 120.99303781780057 100.54070618675476 l 13.436081109730418 0.3460657883257732 a34.440537084398976,34.440537084398976 0 0,0 -0.020295829829341763,0.590890940788399 l -13.42816059290423 -0.5766629936782829" fill="#ff970d" stroke="none" /><path d="M 120.98066250479742 100.90099992219065 l 21.83920623900908 0.9378694842240206 a42.85933503836317,42.85933503836317 0 0,0 -0.037876244536202065,0.7347890252822735 l -21.819888405016304 -1.3126303028830246" fill="#f9ff18" stroke="none" /><path d="M 120.93736805541906 101.62068470465957 l 13.52093461379364 1.0466058514745304 a34.5613810741688,34.5613810741688 0 0,0 -0.05086509921740102,0.5911295550224156 l -13.500975891878499 -1.2785564538726035" fill="#ff980e" stroke="none" /><path d="M 120.86939407059847 102.33845913500097 l 13.370289551623824 1.4981688320146946 a34.4539641943734,34.4539641943734 0 0,0 -0.07090611678881269,0.5872043638200342 l -13.342601348575347 -1.7274668727581375" fill="#ff970d" stroke="none" /><path d="M 120.82617615685814 102.69636545807757 l 13.675500583819241 1.7705673436353364 a34.78964194373401,34.78964194373401 0 0,0 -0.08176474271448232,0.5916089472209588 l -13.64309132454955 -2.00506459905638" fill="#ff9b0e" stroke="none" /><path d="M 120.7213421655516 103.40968896794604 l 13.275437883556718 2.184468251842665 a34.4539641943734,34.4539641943734 0 0,0 -0.10104065109650046,0.5827756250164777 l -13.235982414967983 -2.4120369097797307" fill="#ff970d" stroke="none" /><path d="M 120.592083275326 104.11899336999214 l 21.13190131515232 4.226972096443334 a42.5505115089514,42.5505115089514 0 0,0 -0.149417720203062,0.7150178809952292 l -21.056225884124892 -4.589106428723972" fill="#fdff18" stroke="none" /><path d="M 120.43855184770803 104.8234425847677 l 13.094264035424196 3.0902106585276488 a34.4539641943734,34.4539641943734 0 0,0 -0.1407895185161028,0.5744692800867113 l -13.039286990391798 -3.3145357632224597" fill="#ff970d" stroke="none" /><path d="M 120.35273937422433 105.17358676015961 l 13.039286990391798 3.3145357632224597 a34.4539641943734,34.4539641943734 0 0,0 -0.15063030195336452,0.5719677914190453 l -12.980467207633703 -3.537884059014308" fill="#ff970d" stroke="none" /><path d="M 120.16314734710363 105.8691983318838 l 12.917822021609872 3.7601897241352704 a34.4539641943734,34.4539641943734 0 0,0 -0.1701758074620756,0.5664599163594651 l -12.851369894144167 -3.981387244085459" fill="#ff970d" stroke="none" /><path d="M 119.94978838288452 106.5578916946017 l 20.574813722245995 6.763349938230515 a42.657928388746804,42.657928388746804 0 0,0 -0.2346482197343967,0.693695767388486 l -20.45568008093923 -7.115547380093162" fill="#fcff18" stroke="none" /><path d="M 119.71291397450082 107.23885506374661 l 15.150206264290278 5.563365592470219 a37.13938618925831,37.13938618925831 0 0,0 -0.22490430215425652,0.5965853817026575 l -15.052471278321581 -5.822619254367035" fill="#ffbb11" stroke="none" /><path d="M 119.58574465831526 107.57618678355244 l 12.535377495507406 4.848953305841433 a34.440537084398976,34.440537084398976 0 0,0 -0.21802717308944425,0.54957090207622 l -12.450291647451838 -5.063425225131216" fill="#ff970d" stroke="none" /><path d="M 119.31412917781788 108.2440532568976 l 12.373885828755443 5.281676063562276 a34.4539641943734,34.4539641943734 0 0,0 -0.23685643142229287,0.541973867618403 l -12.281395515316184 -5.493312000956524" fill="#ff970d" stroke="none" /><path d="M 119.0197475246899 108.90220220490707 l 19.639956683103705 9.192491407241002 a42.684782608695656,42.684782608695656 0 0,0 -0.3163160734945268,0.660978936019844 l -19.479261351649267 -9.528282845325949" fill="#fcff18" stroke="none" /><path d="M 118.70294669586154 109.54985784667822 l 13.297747267134298 6.789924504799353 a35.930946291560105,35.930946291560105 0 0,0 -0.2852094676617876,0.5469267605194056 l -13.179229730497562 -7.017197508423261" fill="#ffab0f" stroke="none" /><path d="M 118.5362547648365 109.86951160357373 l 13.06071147752546 6.954093214282763 a35.79667519181586,35.79667519181586 0 0,0 -0.2934554334562061,0.5399249449851071 l -12.939410694453915 -7.177272992742473" fill="#ffa90f" stroke="none" /><line stroke="#e1ed5e" stroke-width="0.3" x1="174.33088141563837" x2="178.70328620479359" y1="141.23008692659167" y2="143.65538615756765" /><path d="M 175.20536237346943 141.71514677278685 a86.0,86.0 0 0,1 -30.301960400862466,31.631185727798858" fill="none" id="id53" stroke="none" /><text fill="#e1ed5e" style="font-size:6.75px; font-family:Arial;" text-anchor="middle"><textPath startOffset="22.145653131862474" xlink:href="#id53">May</textPath></text><path d="M 118.18653347947321 110.5 l 13.977118441385421 8.069693094629152 a37.13938618925831,37.13938618925831 0 0,0 -0.323512863031374,0.5493955680946561 l -13.836531868224283 -8.308439831017358" fill="#ffbb11" stroke="none" /><path d="M 117.81537515405839 111.11811171558189 l 18.589956682495707 11.60150787712893 a42.913043478260875,42.913043478260875 0 0,0 -0.3953768910253554,0.6215981430479313 l -18.38806209984446 -11.918919694855534" fill="#f9ff18" stroke="none" /><path d="M 117.423217284605 111.72311816256416 l 12.287601448158128 8.26764663255004 a35.81010230179028,35.81010230179028 0 0,0 -0.34754601784753236,0.5070800265781282 l -12.143865693495275 -8.477361394198212" fill="#ffa90f" stroke="none" /><path d="M 117.21940702142032 112.02048342749411 l 12.132855842458564 8.469675663106466 a35.79667519181586,35.79667519181586 0 0,0 -0.3560659509713075,0.5008513514018301 l -11.985674792957296 -8.6767042412178" fill="#ffa90f" stroke="none" /><path d="M 116.79662413953412 112.60449989151573 l 10.761008559982846 8.075261439449335 a34.4539641943734,34.4539641943734 0 0,0 -0.3590562826782959,0.4700161998874097 l -10.620800299950247 -8.258798552577622" fill="#ff970d" stroke="none" /><path d="M 116.1254893667686 113.45245675266167 l 17.538016248640275 14.630836915778461 a43.839514066496164,43.839514066496164 0 0,0 -0.4870474745199943,0.5737407003210981 l -17.28427421061317 -14.929744398549117" fill="#edff1a" stroke="none" /><path d="M 115.89218393027572 113.72728997021213 l 11.309463372376518 9.768845100285224 a35.94437340153453,35.94437340153453 0 0,0 -0.4073506277384057,0.4634902380429464 l -11.140101680679527 -9.961547616139464" fill="#ffab0f" stroke="none" /><path d="M 115.6541949942343 113.99807769240083 l 10.129184996269252 9.057579683318181 a34.588235294117645,34.588235294117645 0 0,0 -0.39958025743690373,0.4392086990814818 l -9.972207037990469 -9.230125957957334" fill="#ff990e" stroke="none" /><path d="M 115.16444852881244 114.52719865689866 l 9.792898346611617 9.381375091731233 a34.5613810741688,34.5613810741688 0 0,0 -0.414099983272265,0.4249030630547597 l -9.630411562188545 -9.54810084685373" fill="#ff980e" stroke="none" /><path d="M 114.65682725009322 115.03919595460226 l 15.106653150351832 15.500756955766525 a42.64450127877238,42.64450127877238 0 0,0 -0.5286446194960159,0.5064295870520955 l -14.838336044990504 -15.757798673124201" fill="#fcff18" stroke="none" /><path d="M 114.13192950727249 115.5334660781643 l 9.053832075631096 9.951747449054109 a34.4539641943734,34.4539641943734 0 0,0 -0.4409040544572968,0.39425912424503134 l -8.881662994350421 -10.105702103182526" fill="#ff970d" stroke="none" /><path d="M 113.86319453409587 115.77377054828091 l 8.87279905922632 10.095616572141427 a34.440537084398976,34.440537084398976 0 0,0 -0.4474326306958283,0.3864816497621478 l -8.698186948767637 -10.246442354368293" fill="#ff970d" stroke="none" /><path d="M 113.31354834802062 116.24036423190432 l 8.529523941634693 10.404632327601107 a34.4539641943734,34.4539641943734 0 0,0 -0.46061542408466877,0.3710391803875488 l -8.349657747194772 -10.549519801782058" fill="#ff970d" stroke="none" /><path d="M 112.7482090630111 116.68781488649013 l 13.090552273143118 17.135953137917614 a42.56393861892583,42.56393861892583 0 0,0 -0.5844373562358508,0.4385726877065683 l -12.7944619279965 -17.358144852888195" fill="#fdff18" stroke="none" /><path d="M 112.16784306229584 117.11559508785304 l 7.803290659515811 10.97630554547097 a34.46739130434783,34.46739130434783 0 0,0 -0.48517762209524434,0.33869166101550624 l -7.613717946246808 -11.1086420222916" fill="#ff970d" stroke="none" /><path d="M 111.8722381534696 117.32195027204791 l 7.613717946246808 11.1086420222916 a34.46739130434783,34.46739130434783 0 0,0 -0.4909202227973098,0.3303130349714642 l -7.4219014353524955 -11.237704731320184" fill="#ff970d" stroke="none" /><path d="M 111.27062007382361 117.71928675628689 l 7.2278976560390555 11.363455637183991 a34.46739130434783,34.46739130434783 0 0,0 -0.5019697451386201,0.31326624648832935 l -7.031763782110721 -11.485857680513869" fill="#ff970d" stroke="none" /><line stroke="#e1ed5e" stroke-width="0.3" x1="143.1302829299769" x2="145.66735839644613" y1="173.24464959558577" y2="177.55315839532614" /><path d="M 143.63769802327073 174.10635135553383 a86.0,86.0 0 0,1 -40.68552437913181,11.842963189579606" fill="none" id="id54" stroke="none" /><text fill="#e1ed5e" style="font-size:6.75px; font-family:Arial;" text-anchor="middle"><textPath startOffset="21.407464694133747" xlink:href="#id54">June</textPath></text><path d="M 110.65571695917076 118.09573695890943 l 10.92824168958434 18.558543530748548 a42.53708439897699,42.53708439897699 0 0,0 -0.6323999116485023,0.36511625922575974 l -10.608049310075438 -18.743406687250477" fill="#fdff18" stroke="none" /><path d="M 110.02825361518725 118.45085714620011 l 7.700724163580495 14.168465110349318 a37.12595907928389,37.12595907928389 0 0,0 -0.5625664477942321,0.29953494676924436 l -7.456368899999709 -14.298570524841132" fill="#ffbb11" stroke="none" /><path d="M 109.71004243097381 118.62028667847754 l 6.220883961531812 11.929365250533564 a34.4539641943734,34.4539641943734 0 0,0 -0.5267728574699154,0.26897397442934917 l -6.015183882348315 -12.03439717663575" fill="#ff970d" stroke="none" /><path d="M 109.06512990194946 118.94263497670748 l 9.3085668942013 19.45132466278275 a42.56393861892583,42.56393861892583 0 0,0 -0.6617907781504637,0.30975149994974976 l -8.97328740217933 -19.608252394303033" fill="#fdff18" stroke="none" /><path d="M 108.07796709384702 119.3841803445677 l 5.175270478283068 12.418765156813828 a34.4539641943734,34.4539641943734 0 0,0 -0.5478927446197753,0.22282320947412948 l -4.961323272472851 -12.50577562286725" fill="#ff970d" stroke="none" /><path d="M 107.06938296918513 119.77432235084164 l 4.538146100423186 12.694002327522384 a34.48081841432225,34.48081841432225 0 0,0 -0.559072364059069,0.19447438949095888 l -4.319567964319095 -12.770035149581933" fill="#ff970d" stroke="none" /><path d="M 106.38641147887787 120.00534299687104 l 4.095633448410814 12.829513443645554 a34.46739130434783,34.46739130434783 0 0,0 -0.5651985264824427,0.1750999482738772 l -3.8747942890567466 -12.897929979726078" fill="#ff970d" stroke="none" /><path d="M 105.69591212413111 120.21278271476187 l 5.925351039617209 21.026980483962635 a42.84590792838875,42.84590792838875 0 0,0 -0.7096477938730101,0.19341766188365903 l -5.563521844809504 -21.12559863999044" fill="#faff18" stroke="none" /><path d="M 104.64783097203109 120.47920084513623 l 3.5393648898267376 15.595094761225864 a36.99168797953964,36.99168797953964 0 0,0 -0.6204696561472383,0.13522847368389054 l -3.271132817060363 -15.653554693043473" fill="#ffb911" stroke="none" /><path d="M 103.94208987418118 120.62667999033965 l 2.525558858011213 13.21479114470609 a34.4539641943734,34.4539641943734 0 0,0 -0.5818868757723703,0.10603917243741748 l -2.2983372486877856 -13.256198491074873" fill="#ff970d" stroke="none" /><path d="M 103.58742460773223 120.69131181640829 l 2.2983372486877856 13.256198491074873 a34.4539641943734,34.4539641943734 0 0,0 -0.583621436806788,0.0960346853325505 l -2.0704383088279252 -13.293699174903093" fill="#ff970d" stroke="none" /><path d="M 103.2317021107853 120.74984581791261 l 3.866057959897254 24.82286542539291 a46.12212276214834,46.12212276214834 0 0,0 -0.7833620602542202,0.11512724630328575 l -3.4393707940353484 -24.885573744995074" fill="#d1ff1c" stroke="none" /><path d="M 102.15924093988457 120.88869738790638 l 1.6594677811644802 16.053845434951057 a37.13938618925831,37.13938618925831 0 0,0 -0.6347305675684448,0.06010964467561501 l -1.3836376502110201 -16.079966835131856" fill="#ffbb11" stroke="none" /><path d="M 101.44090949804482 120.95050786540614 l 0.923140228287024 13.422256317862495 a34.4539641943734,34.4539641943734 0 0,0 -0.5904025527033852,0.03551715147176533 l -0.6925933234511737 -13.43612544715895" fill="#ff970d" stroke="none" /><path d="M 101.08105385017728 120.97215588758144 l 0.761023202714314 14.763646823674662 a35.783248081841435,35.783248081841435 0 0,0 -0.6137240076718602,0.026355949581304727 l -0.5074734344416243 -14.774535341681798" fill="#ffa90f" stroke="none" /><path d="M 100.72087961077811 120.9876233191556 l 0.73793366806634 21.484133589493695 a42.49680306905371,42.49680306905371 0 0,0 -0.7292991438402148,0.018784158943163206 l -0.3690212101553815 -21.4936354657869" fill="#feff18" stroke="none" /><line stroke="#e1ed5e" stroke-width="0.3" x1="101.45913802915013" x2="101.54496967792366" y1="184.9874750549273" y2="189.98673829345242" /><path d="M 101.47630435890484 185.9873277026323 a86.0,86.0 0 0,1 -42.54439059252881,-10.42667462771756" fill="none" id="id55" stroke="none" /><text fill="#e1ed5e" style="font-size:6.75px; font-family:Arial;" text-anchor="middle"><textPath startOffset="22.145653131862474" xlink:href="#id55">July</textPath></text><path d="M 99.63950707515114 120.99690560180557 l -0.23072469167116266 13.438556590413919 a34.440537084398976,34.440537084398976 0 0,0 -0.591043381974771,-0.015223180944455456 l 0.4613813877166776 -13.432615692119416" fill="#ff970d" stroke="none" /><path d="M 98.91894614982273 120.97215588758144 l -0.6919021125495167 13.422716140325461 a34.440537084398976,34.440537084398976 0 0,0 -0.5901724659720429,-0.03550331002536169 l 0.922218930654006 -13.408860852475406" fill="#ff970d" stroke="none" /><path d="M 98.55909050195518 120.95050786540614 l -0.922218930654006 13.408860852475406 a34.440537084398976,34.440537084398976 0 0,0 -0.589476041177442,-0.04562917369417352 l 1.152263966606684 -13.39105391178618" fill="#ff970d" stroke="none" /><path d="M 98.19965949673042 120.92268563240118 l -1.8694072744947603 21.725346206534223 a42.80562659846547,42.80562659846547 0 0,0 -0.7315694321793934,-0.06928038583725982 l 2.242076270059169 -21.69005406519178" fill="#faff18" stroke="none" /><path d="M 97.12497278360702 120.80226474461374 l -1.8400909485993406 13.313981463784112 a34.440537084398976,34.440537084398976 0 0,0 -0.5849559489234579,-0.08596838042734438 l 2.0683720031304835 -13.280432010057885" fill="#ff970d" stroke="none" /><path d="M 96.41257539226777 120.69131181640829 l -2.298337248687782 13.256198491074873 a34.4539641943734,34.4539641943734 0 0,0 -0.5818868757723703,-0.10603917243741365 l 2.5255588580112094 -13.214791144706092" fill="#ff970d" stroke="none" /><path d="M 96.05791012581884 120.62667999033965 l -2.5255588580112094 13.214791144706092 a34.4539641943734,34.4539641943734 0 0,0 -0.5799808300048347,-0.11601240931144337 l 2.7520361735470025 -13.169489338731788" fill="#ff970d" stroke="none" /><path d="M 95.70440661134978 120.55596938700252 l -5.223924952182036 24.998371978311244 a46.5383631713555,46.5383631713555 0 0,0 -0.7805981227609163,-0.17012772769087645 l 5.652285491562089 -24.905012792486648" fill="#ccff1d" stroke="none" /><path d="M 94.6519064749342 120.30758222061772 l -3.422916635927669 12.997371996699707 a34.440537084398976,34.440537084398976 0 0,0 -0.5704313980834443,-0.15547361414339492 l 3.6455294349458085 -12.936697888412168" fill="#ff970d" stroke="none" /><path d="M 93.95794788825049 120.11202640906438 l -3.8670678797066858 12.872211275878165 a34.440537084398976,34.440537084398976 0 0,0 -0.5647581692354602,-0.17496352447311078 l 4.08746668181378 -12.803931163598405" fill="#ff970d" stroke="none" /><path d="M 93.61358852112213 120.00534299687104 l -4.08746668181378 12.803931163598405 a34.440537084398976,34.440537084398976 0 0,0 -0.5616714692669679,-0.18463256816100684 l 4.306660888728491 -12.731877674035376" fill="#ff970d" stroke="none" /><path d="M 93.27111125876986 119.89276391827306 l -7.017146762753415 20.744947538812887 a42.899616368286445,42.899616368286445 0 0,0 -0.6955748454706875,-0.24195703832695237 l 7.372227380269125 -20.621432067917343" fill="#f9ff18" stroke="none" /><path d="M 92.25597844496254 119.51999308798841 l -4.961323272472848 12.505775622867251 a34.4539641943734,34.4539641943734 0 0,0 -0.5478927446197753,-0.22282320947412948 l 5.175270478283064 -12.41876515681383" fill="#ff970d" stroke="none" /><path d="M 91.59046798132341 119.24265499422711 l -10.221560337278897 23.388930398993423 a46.52493606138107,46.52493606138107 0 0,0 -0.7290825186094784,-0.32610933701876765 l 10.62155625874401 -23.2100173110648" fill="#cdff1d" stroke="none" /><path d="M 91.26138138417905 119.09545874513695 l -5.632050872600717 12.307047579985966 a34.53452685421995,34.53452685421995 0 0,0 -0.5369482275719488,-0.2513188826090829 l 5.842487814044156 -12.208552465806356" fill="#ff980e" stroke="none" /><path d="M 90.93487009805054 118.94263497670748 l -6.155478232653666 12.862582062188844 a35.25959079283888,35.25959079283888 0 0,0 -0.5437360520702084,-0.26596855002857883 l 6.375374533985943 -12.755019762063045" fill="#ffa20e" stroke="none" /><path d="M 89.97174638481275 118.45085714620012 l -6.418338790794397 11.809020462497642 a34.440537084398976,34.440537084398976 0 0,0 -0.5170275942324788,-0.28678649099358977 l 6.620110573182979 -11.697101056070904" fill="#ff970d" stroke="none" /><line stroke="#e1ed5e" stroke-width="0.3" x1="58.13341422392154" x2="55.67067388415222" y1="173.97424548756322" y2="178.32567169271397" /><path d="M 57.64086615596768 174.84453072859336 a86.0,86.0 0 0,1 -31.369924170532247,-30.572349798747897" fill="none" id="id56" stroke="none" /><text fill="#e1ed5e" style="font-size:6.75px; font-family:Arial;" text-anchor="middle"><textPath startOffset="22.145653131862474" xlink:href="#id56">August</textPath></text><path d="M 89.34428304082925 118.09573695890944 l -6.819931378599692 11.581734460273877 a34.440537084398976,34.440537084398976 0 0,0 -0.5068781837788997,-0.30436578556609234 l 7.017742318936019 -11.462954674171865" fill="#ff970d" stroke="none" /><path d="M 89.03521579738668 117.91015095944536 l -11.238202734519918 18.356759583114385 a42.52365728900256,42.52365728900256 0 0,0 -0.6192980844776089,-0.3864878078023136 l 11.55166494778724 -18.161135978470526" fill="#feff18" stroke="none" /><path d="M 88.72937992617639 117.7192867562869 l -7.220691377219471 11.35212616994851 a34.4539641943734,34.4539641943734 0 0,0 -0.4963247235476427,-0.32171168937839273 l 7.414501733024124 -11.226500638866224" fill="#ff970d" stroke="none" /><path d="M 87.83215693770417 117.11559508785305 l -8.57350578941816 12.05970958236193 a35.79667519181586,35.79667519181586 0 0,0 -0.4977766153088484,-0.3603518820456571 l 8.779263415100964 -11.910756928943208" fill="#ffa90f" stroke="none" /><path d="M 87.2517909369889 116.68781488649013 l -11.294797974280431 14.78525311621894 a39.605810140664964,39.605810140664964 0 0,0 -0.5367342714618323,-0.4173678158969372 l 11.546942190377493 -14.589184248701208" fill="#ffdb14" stroke="none" /><path d="M 86.96720088162412 116.46651593811092 l -15.457699721603106 19.530298635035653 a45.90728900255755,45.90728900255755 0 0,0 -0.6137350486926852,-0.4943815112022566 l 15.790685540651053 -19.262068830039983" fill="#d4ff1c" stroke="none" /><path d="M 86.68645165197938 116.24036423190432 l -8.538036440578441 10.415016192199516 a34.46739130434783,34.46739130434783 0 0,0 -0.454355168929937,-0.3790392416229087 l 8.71556594367027 -10.266914766664739" fill="#ff970d" stroke="none" /><path d="M 86.40962598614128 116.0094264158162 l -4.9156456060590505 5.790618163722501 a28.595711319053706,28.595711319053706 0 0,0 -0.3714998494578682,-0.3208927218419029 l 5.014324935279781 -5.705381309415875" fill="#ff4506" stroke="none" /><path d="M 86.13680546590413 115.77377054828092 l -3.3954194318353514 3.8633640248804477 a26.14338941815857,26.14338941815857 0 0,0 -0.3345544311445244,-0.2991606352944279 l 3.461238889803247 -3.8045078597026376" fill="#ff2103" stroke="none" /><path d="M 85.86807049272751 115.53346607816431 l -13.609520053277173 14.959246575556921 a41.223701297953966,41.223701297953966 0 0,0 -0.519360194270685,-0.48071204221945774 l 13.864310018861826 -14.723416787205085" fill="#fff016" stroke="none" /><path d="M 85.60350026404147 115.28858382429668 l -2.0627665654667067 2.190586609557881 a24.008932634271098,24.008932634271098 0 0,0 -0.2976278928431868,-0.2851207887284595 l 2.100066944175208 -2.154853690523839" fill="#ff0100" stroke="none" /><path d="M 85.34317274990678 115.03919595460226 l -13.173717801139222 13.517395005164223 a39.87503134910486,39.87503134910486 0 0,0 -0.48611096240199453,-0.48195619281722285 l 13.40382068367118 -13.289258802118342" fill="#ffdf14" stroke="none" /><path d="M 85.08716467003676 114.78537596483092 l -11.706550370759013 11.606494985908855 a37.484964283887464,37.484964283887464 0 0,0 -0.4491291320103134,-0.46084605555957536 l 11.904066303920136 -11.40382623828154" fill="#ffc011" stroke="none" /><path d="M 84.83555147118756 114.52719865689866 l -15.532894209180004 14.880161284112312 a42.510230179028135,42.510230179028135 0 0,0 -0.5002931140607565,-0.5312939500100666 l 15.786043156977014 -14.611325874157755" fill="#feff18" stroke="none" /><path d="M 84.58840730492382 114.26474011684316 l -6.449660985001359 5.969709919869655 a29.788376604859334,29.788376604859334 0 0,0 -0.34412993583461104,-0.37825908217394527 l 6.55118862167785 -5.858113262138035" fill="#ff5607" stroke="none" /><path d="M 84.3458050057657 113.99807769240083 l -3.4713307517703655 3.104085363520702 a25.656767455242967,25.656767455242967 0 0,0 -0.29076318042548016,-0.33083512466335274 l 3.5241049961544384 -3.044037961046049" fill="#ff1a02" stroke="none" /><path d="M 84.1078160697243 113.72728997021213 l -14.058180382353601 12.143121386512135 a39.57653984654731,39.57653984654731 0 0,0 -0.43968675732270895,-0.5179498945495247 l 14.264561703183423 -11.900004709513055" fill="#ffdb14" stroke="none" /><path d="M 83.64595745247003 113.17365903436017 l -10.477462041320349 8.43990175986502 a34.4539641943734,34.4539641943734 0 0,0 -0.367071827988333,-0.46378326337271714 l 10.620800299950243 -8.258798552577623" fill="#ff970d" stroke="none" /><path d="M 83.4222238831116 112.89097897827486 l -16.969961357505337 13.1959445934898 a42.49680306905371,42.49680306905371 0 0,0 -0.44287339621077754,-0.5797354920669089 l 17.19398673107041 -12.90268818818202" fill="#feff18" stroke="none" /><path d="M 83.20337586046588 112.60449989151573 l -10.803966677986779 8.107498012061907 a34.5076726342711,34.5076726342711 0 0,0 -0.3514819754920434,-0.4768528038228768 l 10.941550673062652 -7.920838898970151" fill="#ff980e" stroke="none" /><path d="M 82.576782715395 111.72311816256416 l -11.162444833231588 7.510591047883175 a34.4539641943734,34.4539641943734 0 0,0 -0.32596003179630134,-0.4935450333644305 l 11.289729303948615 -7.317866136179684" fill="#ff970d" stroke="none" /><path d="M 82.18462484594161 111.11811171558189 l -11.402295734790561 7.115875848655675 a34.440537084398976,34.440537084398976 0 0,0 -0.30870535241169245,-0.5042469930565928 l 11.522769051657658 -6.919091739474524" fill="#ff970d" stroke="none" /><path d="M 81.99639281039703 110.81064883170644 l -18.590681337090032 11.163169989262098 a42.684782608695656,42.684782608695656 0 0,0 -0.37181756745361966,-0.6314275166207012 l 18.779572614673423 -10.842391304347837" fill="#fcff18" stroke="none" /><line stroke="#e1ed5e" stroke-width="0.3" x1="26.387840678322732" x2="22.057713659400548" y1="142.50000000000003" y2="145.00000000000006" /><path d="M 25.521815274538298 143.00000000000003 a86.0,86.0 0 0,1 -11.493303480769221,-40.785679425670985" fill="none" id="id57" stroke="none" /><text fill="#e1ed5e" style="font-size:6.75px; font-family:Arial;" text-anchor="middle"><textPath startOffset="21.40746469413373" xlink:href="#id57">September</textPath></text><path d="M 81.81346652052679 110.50000000000001 l -12.011949542388631 6.935102301790287 a34.87020460358056,34.87020460358056 0 0,0 -0.2948468996416116,-0.5209662199824688 l 12.12922980705162 -6.727879311708696" fill="#ff9d0e" stroke="none" /><path d="M 81.4637452351635 109.86951160357371 l -12.21923188142355 6.506052725885233 a34.843350383631716,34.843350383631716 0 0,0 -0.2765764456585721,-0.5303718025216209 l 12.32911639605707 -6.295334680259109" fill="#ff9c0e" stroke="none" /><path d="M 81.29705330413844 109.54985784667822 l -11.982322627399787 6.118259310979268 a34.4539641943734,34.4539641943734 0 0,0 -0.2644425209070862,-0.5290621848361958 l 12.08558506151861 -5.911665269979319" fill="#ff970d" stroke="none" /><path d="M 80.9802524753101 108.90220220490708 l -12.185285818247618 5.703329034090083 a34.4539641943734,34.4539641943734 0 0,0 -0.2461252322135077,-0.5378280509188672 l 12.281395515316182 -5.493312000956527" fill="#ff970d" stroke="none" /><path d="M 80.83023694016515 108.57439118712176 l -12.26913863356437 5.487829653650184 a34.440537084398976,34.440537084398976 0 0,0 -0.23676412572025388,-0.5417626541080219 l 12.361536641301592 -5.276404929766313" fill="#ff970d" stroke="none" /><path d="M 80.68587082218212 108.24405325689762 l -19.80809667597179 8.454898608736432 a42.53708439897699,42.53708439897699 0 0,0 -0.28089496451944623,-0.674045658625333 l 19.95031748502772 -8.113620440669818" fill="#fdff18" stroke="none" /><path d="M 80.28708602549918 107.23885506374661 l -12.616769110278343 4.6330523777559804 a34.440537084398976,34.440537084398976 0 0,0 -0.19903322495990128,-0.5567313535057138 l 12.694442505282188 -4.4157860678693455" fill="#ff970d" stroke="none" /><path d="M 80.05021161711548 106.5578916946017 l -12.781130408983557 4.201411430940468 a34.4539641943734,34.4539641943734 0 0,0 -0.17987476938335298,-0.5634551531636118 l 12.851369894144165 -3.981387244085465" fill="#ff970d" stroke="none" /><path d="M 79.94057633289273 106.21446072829308 l -12.838544175686938 3.977413803722107 a34.440537084398976,34.440537084398976 0 0,0 -0.17010948797358688,-0.5662391603515309 l 12.904929983664154 -3.7564370397798528" fill="#ff970d" stroke="none" /><path d="M 79.83685265289637 105.86919833188381 l -20.64015275109522 6.008047653034511 a42.49680306905371,42.49680306905371 0 0,0 -0.19787626124294758,-0.702193044019833 l 20.740247504412743 -5.652846685111682" fill="#feff18" stroke="none" /><path d="M 79.64726062577567 105.17358676015961 l -27.484006111484515 6.986326878169493 a49.35805626598466,49.35805626598466 0 0,0 -0.20169223307295714,-0.8229731385809629 l 27.599885871073766 -6.51349791498043" fill="#abff21" stroke="none" /><path d="M 79.56144815229197 104.8234425847677 l -13.159604674323523 3.1056308713945513 a34.521099744245525,34.521099744245525 0 0,0 -0.1311623241273911,-0.5779254011782375 l 13.210977860008581 -2.879271136277288" fill="#ff980e" stroke="none" /><path d="M 79.407916724674 104.11899336999214 l -13.179459947954811 2.636261101893946 a34.440537084398976,34.440537084398976 0 0,0 -0.1109866114426263,-0.5807288495457469 l 13.222772851679593 -2.4096296873148844" fill="#ff970d" stroke="none" /><path d="M 79.34024301695615 103.76489593502545 l -21.16172038800271 3.8563703886897556 a42.510230179028135,42.510230179028135 0 0,0 -0.12466668019155125,-0.719044282463813 l 21.224801885686496 -3.4925330733053497" fill="#feff18" stroke="none" /><path d="M 79.2786578344484 103.40968896794605 l -13.26218894355317 2.1822881438069004 a34.440537084398976,34.440537084398976 0 0,0 -0.09098617178091035,-0.584196491909099 l 13.297696607472348 -1.9543034699663515" fill="#ff970d" stroke="none" /><path d="M 79.17382384314188 102.69636545807758 l -14.687514258960688 1.901592775102029 a35.81010230179028,35.81010230179028 0 0,0 -0.07369704344340361,-0.6103172401824132 l 14.717993388663752 -1.6491818579962165" fill="#ffa90f" stroke="none" /><path d="M 79.13060592940153 102.33845913500099 l -13.370289551623824 1.498168832014695 a34.4539641943734,34.4539641943734 0 0,0 -0.06081552486703636,-0.5883350356918146 l 13.394037468972526 -1.268429274039949" fill="#ff970d" stroke="none" /><path d="M 79.03789590574601 101.26102812881392 l -40.222042446839026 2.419658193459443 a61.29475703324808,61.29475703324808 0 0,0 -0.054168250722983216,-1.0508495928613963 l 40.25765228701858 -1.7288368072213158" fill="#30ff35" stroke="none" /><line stroke="#e1ed5e" stroke-width="0.3" x1="15.003131293944662" x2="10.003315487706104" y1="100.72959589197737" y2="100.7725132973878" /><path d="M 14.003168132696942 100.73817937305945 a86.0,86.0 0 0,1 10.791469493833604,-42.45332614584628" fill="none" id="id58" stroke="none" /><text fill="#e1ed5e" style="font-size:6.75px; font-family:Arial;" text-anchor="middle"><textPath startOffset="22.145653131862435" xlink:href="#id58">October</textPath></text><path d="M 79.00077361379809 100.18025310272382 l -13.453468567119122 0.11548184714147634 a34.4539641943734,34.4539641943734 0 0,0 0.0,-0.5914698997305828 l 13.453468567119122 0.1154818471414714" fill="#ff970d" stroke="none" /><path d="M 79.00696218219943 99.45929381324524 l -14.778346954858335 -0.3806377951515296 a35.783248081841435,35.783248081841435 0 0,0 0.02108709025153038,-0.6139276246397513 l 14.769635177609954 0.6342716843554194" fill="#ffa90f" stroke="none" /><path d="M 79.01933749520258 99.09900007780938 l -13.428160592904232 -0.5766629936782693 a34.440537084398976,34.440537084398976 0 0,0 0.030436267930880483,-0.5904554667447146 l 13.416282735516782 0.807090253799696" fill="#ff970d" stroke="none" /><path d="M 79.06263194458094 98.37931529534042 l -25.44880861467495 -1.9698987362901996 a46.52493606138107,46.52493606138107 0 0,0 0.0684722489464962,-0.7957513240685846 l 25.411242743030712 2.4064711077344647" fill="#cdff1d" stroke="none" /><path d="M 79.13060592940154 97.66154086499901 l -14.85142941213305 -1.66413364274687 a35.94437340153453,35.94437340153453 0 0,0 0.07397337281513294,-0.6126056437825839 l 14.82067395305825 1.91883296345289" fill="#ffab0f" stroke="none" /><path d="M 79.2786578344484 96.59031103205396 l -14.759319163954277 -2.4286403518490327 a35.95780051150895,35.95780051150895 0 0,0 0.10545084319424328,-0.6082124410733074 l 14.715453503267799 2.6816458258429328" fill="#ffab0f" stroke="none" /><path d="M 79.34024301695615 96.23510406497455 l -14.821130009574928 -2.7009036055617326 a36.065217391304344,36.065217391304344 0 0,0 0.11622223716759607,-0.6081238557036555 l 14.772581480125172 2.954930026298703" fill="#ffad10" stroke="none" /><path d="M 79.407916724674 95.88100663000787 l -25.02912423682527 -5.00652582887151 a46.52493606138107,46.52493606138107 0 0,0 0.16337406137696225,-0.7818040257647425 l 24.939492464623942 5.435446305921661" fill="#cdff1d" stroke="none" /><path d="M 79.64726062577567 94.8264132398404 l -13.0392869903918 -3.314535763222452 a34.4539641943734,34.4539641943734 0 0,0 0.15063030195337215,-0.5719677914190758 l 12.980467207633701 3.5378840590143126" fill="#ff970d" stroke="none" /><path d="M 79.83685265289637 94.1308016681162 l -12.917822021609872 -3.760189724135272 a34.4539641943734,34.4539641943734 0 0,0 0.1701758074620756,-0.5664599163594651 l 12.851369894144167 3.9813872440854605" fill="#ff970d" stroke="none" /><path d="M 79.94057633289273 93.78553927170692 l -24.381690787193673 -7.5535101307449715 a46.52493606138107,46.52493606138107 0 0,0 0.24289402802545004,-0.7608620832860151 l 24.248432043390967 7.9709412477223776" fill="#cdff1d" stroke="none" /><path d="M 80.05021161711548 93.44210830539832 l -12.781130408983561 -4.201411430940464 a34.4539641943734,34.4539641943734 0 0,0 0.1895207213844702,-0.5602843371478907 l 12.707124266026725 4.420197442562516" fill="#ff970d" stroke="none" /><path d="M 80.41425534168474 92.42381321644754 l -12.535377495507404 -4.848953305841437 a34.440537084398976,34.440537084398976 0 0,0 0.21802717308943279,-0.5495709020761893 l 12.450291647451841 5.063425225131209" fill="#ff970d" stroke="none" /><path d="M 80.5471966667186 92.08871423366112 l -12.761237992293294 -5.189884396588033 a34.77621483375959,34.77621483375959 0 0,0 0.2296458201090285,-0.5510663686362702 l 12.670266327647788 5.408183274665567" fill="#ff9b0e" stroke="none" /><path d="M 80.9802524753101 91.09779779509293 l -13.74188919622736 -6.431898012496798 a36.172634271099746,36.172634271099746 0 0,0 0.26805772318159593,-0.5601375443968383 l 13.629452215085859 6.666848058958723" fill="#ffae10" stroke="none" /><path d="M 81.29705330413844 90.45014215332179 l -13.501040166002364 -6.8937273074806305 a36.15920716112532,36.15920716112532 0 0,0 0.2870213364772934,-0.5504012578769935 l 13.38071076055013 7.12447480846211" fill="#ffae10" stroke="none" /><line stroke="#e1ed5e" stroke-width="0.3" x1="26.387840678322718" x2="22.05771365940052" y1="57.49999999999999" y2="54.99999999999999" /><path d="M 25.521815274538284 56.99999999999999 a86.0,86.0 0 0,1 29.574782752854787,-30.34633250058573" fill="none" id="id59" stroke="none" /><text fill="#e1ed5e" style="font-size:6.75px; font-family:Arial;" text-anchor="middle"><textPath startOffset="21.40746469413373" xlink:href="#id59">November</textPath></text><path d="M 82.18462484594161 88.88188828441811 l -48.44551824182244 -30.23358639793463 a78.10549872122762,78.10549872122762 0 0,0 0.719620580442582,-1.1313630782571389 l 47.91937996975397 31.06076315087044" fill="#45fff3" stroke="none" /><path d="M 82.98947788004972 87.6856937992154 l -6.547528335172681 -4.7399055836779596 a29.08312020460358,29.08312020460358 0 0,0 0.29622955599836864,-0.4018922852452954 l 6.465196759590494 4.851604178192119" fill="#ff4c07" stroke="none" /><path d="M 83.64595745247003 86.82634096563983 l -11.826356855023274 -9.526475938530275 a36.18606138107417,36.18606138107417 0 0,0 0.39383044894622277,-0.48040911177913154 l 11.661079586838422 9.728087332007899" fill="#ffae10" stroke="none" /><path d="M 83.8745106332314 86.54754324733833 l -11.65076917164228 -9.719486016948654 a36.172634271099746,36.172634271099746 0 0,0 0.401870106081735,-0.47340197447627513 l 11.48220450205343 9.918054773874486" fill="#ffae10" stroke="none" /><path d="M 84.34580500576568 86.00192230759919 l -11.22017428934569 -10.033149036560943 a36.05179028132992,36.05179028132992 0 0,0 0.41648796242940544,-0.4577932286622051 l 11.04628862607442 10.224279840780806" fill="#ffac10" stroke="none" /><path d="M 84.83555147118756 85.47280134310135 l -9.725026773912333 -9.316355660402396 a34.46739130434783,34.46739130434783 0 0,0 0.4129738372416177,-0.42374753801926873 l 9.563666135519913 9.481925890489395" fill="#ff970d" stroke="none" /><path d="M 85.34317274990677 84.96080404539775 l -17.824351297747647 -18.289354671133932 a46.5383631713555,46.5383631713555 0 0,0 0.5769150664903253,-0.5526715833509588 l 17.507763745392023 18.59263838479046" fill="#ccff1d" stroke="none" /><path d="M 86.13680546590413 84.22622945171909 l -9.768056506760649 -11.11425520729256 a35.79667519181586,35.79667519181586 0 0,0 0.46505083564721594,-0.4016998355812541 l 9.575826191350584 11.280299175338525" fill="#ffa90f" stroke="none" /><path d="M 86.40962598614128 83.9905735841838 l -9.84520061234139 -11.597621565933348 a36.21291560102302,36.21291560102302 0 0,0 0.4773649749138948,-0.398234840146838 l 9.644661303265586 11.76491858999207" fill="#ffaf10" stroke="none" /><path d="M 86.96720088162412 83.53348406188908 l -39.09839735512763 -49.399547814332756 a84.0,84.0 0 0,0 1.1383602214590214,-0.8851957935167807 l 38.244627189033366 50.06344465947034" fill="#4dd2ff" stroke="none" /><path d="M 88.12776184653039 82.6780497279521 l -4.0383827990062855 -5.89212119228228 a28.14322250639386,28.14322250639386 0 0,0 0.4008448722178455,-0.26970631916643123 l 3.9366416386914507 5.960577185505821" fill="#ff3e05" stroke="none" /><path d="M 88.72937992617638 82.28071324371311 l -5.8226732862209 -9.154209526265863 a31.84910485933504,31.84910485933504 0 0,0 0.4638380348534751,-0.2894692390613022 l 5.664671122577726 9.252814562168702" fill="#ff730a" stroke="none" /><line stroke="#e1ed5e" stroke-width="0.3" x1="56.869717070023135" x2="54.33264160355391" y1="26.7553504044142" y2="22.446841604673864" /><path d="M 56.362301976729285 25.89364864446614 a86.0,86.0 0 0,1 42.16139366436587,-11.88097634709845" fill="none" id="id60" stroke="none" /><text fill="#e1ed5e" style="font-size:6.75px; font-family:Arial;" text-anchor="middle"><textPath startOffset="22.145653131862474" xlink:href="#id60">December</textPath></text><path d="M 90.93487009805054 81.0573650232925 l -3.002389571106021 -6.273839461594935 a27.955242966751918,27.955242966751918 0 0,0 0.43465249214801155,-0.20343931321619546 l 2.8942483650864874 6.324455006381673" fill="#ff3b05" stroke="none" /><path d="M 96.05791012581881 79.37332000966035 l -2.840623585807032 -14.863342934215337 a36.13235294117647,36.13235294117647 0 0,0 0.6102328849195366,-0.11120475955927543 l 2.585055967336457 14.909915867705973" fill="#ffae10" stroke="none" /></svg>